<svg width="105" height="101" viewBox="0 0 105 101" fill="none" xmlns="http://www.w3.org/2000/svg">
<g style="mix-blend-mode:screen">
<path d="M0 47.7918C0 25.2625 0 13.9979 6.99895 6.99895C13.9979 0 25.2625 0 47.7918 0L56.7167 0C79.2459 0 90.5105 0 97.5095 6.99895C104.508 13.9979 104.508 25.2625 104.508 47.7918V53.0281C104.508 75.5574 104.508 86.822 97.5095 93.821C90.5105 100.82 79.2459 100.82 56.7166 100.82H47.7918C25.2625 100.82 13.9979 100.82 6.99895 93.821C0 86.822 0 75.5574 0 53.0281L0 47.7918Z" fill="url(#paint0_linear_70_7)"/>
<path d="M47.792 1.49316L56.7168 1.49316C68.0236 1.49316 76.3538 1.49709 82.7383 2.35547C89.0794 3.20806 93.2775 4.87923 96.4531 8.05469C99.6289 11.2304 101.301 15.4289 102.153 21.7705C103.012 28.155 103.015 36.4851 103.015 47.792V53.0283C103.015 64.3351 103.012 72.6653 102.153 79.0498C101.301 85.3912 99.6288 89.589 96.4531 92.7646C93.2775 95.9403 89.0796 97.6122 82.7383 98.4648C76.3538 99.3232 68.0236 99.3262 56.7168 99.3262H47.792C36.4851 99.3262 28.155 99.3232 21.7705 98.4648C15.4289 97.6122 11.2304 95.9404 8.05469 92.7646C4.87922 89.589 3.20806 85.3909 2.35547 79.0498C1.4971 72.6653 1.49316 64.3351 1.49316 53.0283L1.49316 47.792C1.49316 36.4851 1.49709 28.1551 2.35547 21.7705C3.20807 15.429 4.87897 11.2304 8.05469 8.05469C11.2304 4.87897 15.429 3.20807 21.7705 2.35547C28.155 1.49709 36.4851 1.49316 47.792 1.49316Z" stroke="#0051FF" stroke-opacity="0.42" style="mix-blend-mode:plus-lighter" stroke-width="2.98699"/>
<path d="M47.5649 75.4096L42.4507 61.7744L28.8164 56.6581L42.4515 51.5439L47.5679 37.9096L52.682 51.5447L66.3164 56.661L52.6812 61.7752L47.5649 75.4096ZM35.8487 42.5961L33.5475 36.304L27.2557 34.0017L33.5478 31.7004L35.8501 25.4086L38.1514 31.7008L44.4432 34.0031L38.151 36.3043L35.8487 42.5961ZM66.3169 50.411L63.2794 42.5114L55.3802 39.4727L63.2799 36.4352L66.3186 28.536L69.3561 36.4357L77.2552 39.4744L69.3556 42.5119L66.3169 50.411Z" fill="white"/>
</g>
<defs>
<linearGradient id="paint0_linear_70_7" x1="52.2542" y1="0" x2="-27.398" y2="39.5453" gradientUnits="userSpaceOnUse">
<stop stop-color="#0099FE"/>
<stop offset="1" stop-color="#1F4699"/>
</linearGradient>
</defs>
</svg>
