<svg width="105" height="101" viewBox="0 0 105 101" fill="none" xmlns="http://www.w3.org/2000/svg">
<g style="mix-blend-mode:screen">
<path d="M0 47.7918C0 25.2625 0 13.9979 6.99895 6.99895C13.9979 0 25.2625 0 47.7918 0H56.7167C79.2459 0 90.5105 0 97.5095 6.99895C104.508 13.9979 104.508 25.2625 104.508 47.7918V53.0281C104.508 75.5574 104.508 86.822 97.5095 93.821C90.5105 100.82 79.2459 100.82 56.7166 100.82H47.7918C25.2625 100.82 13.9979 100.82 6.99895 93.821C0 86.822 0 75.5574 0 53.0281V47.7918Z" fill="url(#paint0_linear_70_9)"/>
<path d="M47.792 1.49316H56.7168C68.0236 1.49316 76.3538 1.49709 82.7383 2.35547C89.0794 3.20806 93.2775 4.87923 96.4531 8.05469C99.6289 11.2304 101.301 15.4289 102.153 21.7705C103.012 28.155 103.015 36.4851 103.015 47.792V53.0283C103.015 64.3351 103.012 72.6653 102.153 79.0498C101.301 85.3912 99.6288 89.589 96.4531 92.7646C93.2775 95.9403 89.0796 97.6122 82.7383 98.4648C76.3538 99.3232 68.0236 99.3262 56.7168 99.3262H47.792C36.4851 99.3262 28.155 99.3232 21.7705 98.4648C15.4289 97.6122 11.2304 95.9404 8.05469 92.7646C4.87922 89.589 3.20806 85.3909 2.35547 79.0498C1.4971 72.6653 1.49316 64.3351 1.49316 53.0283V47.792C1.49316 36.4851 1.49709 28.1551 2.35547 21.7705C3.20807 15.429 4.87897 11.2304 8.05469 8.05469C11.2304 4.87897 15.429 3.20807 21.7705 2.35547C28.155 1.49709 36.4851 1.49316 47.792 1.49316Z" stroke="#0051FF" stroke-opacity="0.42" style="mix-blend-mode:plus-lighter" stroke-width="2.98699"/>
<path d="M55.7528 26.2849C55.5286 26.0986 55.263 25.9688 54.9782 25.9066C54.6934 25.8445 54.3979 25.8516 54.1165 25.9276C53.8351 26.0036 53.576 26.1461 53.3612 26.3431C53.1464 26.5402 52.9822 26.7859 52.8823 27.0598L47.8815 40.789L42.3909 35.4683C42.2065 35.2894 41.9863 35.1517 41.7448 35.0641C41.5033 34.9765 41.246 34.9411 40.9898 34.9602C40.7336 34.9793 40.4844 35.0525 40.2585 35.1749C40.0327 35.2973 39.8353 35.4662 39.6795 35.6704C34.7564 42.1201 32.256 48.6086 32.2557 54.9541C32.2554 60.2584 34.3622 65.3456 38.1128 69.0965C41.8633 72.8475 46.9502 74.9549 52.2546 74.9552C57.5589 74.9555 62.6461 72.8486 66.397 69.0981C70.148 65.3476 72.2554 60.2606 72.2557 54.9563C72.2564 41.445 60.7139 30.4102 55.7528 26.2849Z" fill="white"/>
</g>
<defs>
<linearGradient id="paint0_linear_70_9" x1="52.2542" y1="0" x2="-27.398" y2="39.5453" gradientUnits="userSpaceOnUse">
<stop stop-color="#0099FE"/>
<stop offset="1" stop-color="#1F4699"/>
</linearGradient>
</defs>
</svg>
