<svg width="70" height="32" viewBox="0 0 70 32" fill="none" xmlns="http://www.w3.org/2000/svg">
<path d="M0 8.21367H3.94024V20.8584C5.45234 20.8584 10.7732 20.3324 10.7732 12.4169V8.21367H14.7485V12.1232C14.7485 20.4025 10.0851 24.6364 3.58084 24.6364H0V8.21367Z" fill="#0198FF"/>
<path d="M35.2694 16.9841V17.7686C34.292 17.8037 33.2927 17.9176 32.2977 18.1017C32.3503 14.7839 31.8551 11.6895 30.9785 10.0109C30.1545 8.43303 29.0193 8.21388 28.4232 8.20512C26.017 8.22265 24.2244 10.8349 22.1425 13.8547C21.3185 15.0512 19.9993 16.9709 19.2498 17.5363C18.9036 16.2653 19.7363 12.2505 21.1345 8.63026L17.7772 7.32854C16.6946 10.1204 14.3935 16.9271 16.3834 19.8198C17.0189 20.7446 18.0138 21.2355 19.1885 21.2443C21.4237 21.2355 23.1287 18.7548 25.101 15.8884C25.8549 14.7926 27.1303 12.9343 27.9937 12.1454C28.4364 13.4295 28.7826 16.1733 28.6468 19.0791C23.4223 20.9287 19.0175 24.4044 18.794 27.5732C18.737 28.3753 18.8773 31.0401 23.0892 31.6405C23.4443 31.6888 23.7949 31.7151 24.1368 31.7151C26.3151 31.7151 28.1778 30.6895 29.576 28.7128C30.8295 26.9421 31.6052 24.4482 31.9909 21.8184C33.0428 21.5686 34.1429 21.4108 35.2606 21.3626V24.6279H39.2008V16.4801C39.2008 13.6224 41.1381 11.9131 44.0308 11.8824V8.03857C38.6793 8.03857 35.2606 11.2907 35.2606 16.9709M27.0032 26.0523C25.8505 28.1123 24.5794 28.2131 23.5977 28.0729C22.9139 27.9764 22.5458 27.8186 22.3967 27.7266C22.5633 26.7755 24.8293 24.7155 28.0858 23.1903C27.8272 24.2334 27.4722 25.2108 27.0032 26.0523Z" fill="#0198FF"/>
<path d="M53.0245 7.88494C58.1831 7.88494 61.6281 11.2992 61.6632 16.4272V24.6408H57.6879V21.2923L57.3898 21.323V21.6166C57.3898 23.1287 55.5183 24.9652 51.9682 24.9652C47.4362 24.9652 44.3813 21.678 44.3813 16.6858C44.3813 11.1677 47.7956 7.88494 53.0201 7.88494M52.9193 21.2528C56.2678 21.2528 57.6835 19.2805 57.6835 16.4229C57.6835 13.5652 55.8777 11.5929 53.0201 11.5929C50.1624 11.5929 48.2909 13.5301 48.2909 16.4229C48.2909 19.3156 50.066 21.2528 52.9236 21.2528" fill="#0198FF"/>
<path d="M67.3521 0H63.4119V24.6363H67.3521V0Z" fill="#0198FF"/>
<path d="M1.75317 8.21367H5.69341V20.8584C7.20552 20.8584 12.5264 20.3324 12.5264 12.4169V8.21367H16.5017V12.1232C16.5017 20.4025 11.8383 24.6364 5.33401 24.6364H1.75317V8.21367Z" fill="#FE0187"/>
<path d="M37.0225 16.9841V17.7686C36.0451 17.8037 35.0458 17.9176 34.0509 18.1017C34.1035 14.7839 33.6082 11.6895 32.7317 10.0109C31.9077 8.43303 30.7725 8.21388 30.1764 8.20512C27.7702 8.22265 25.9776 10.8349 23.8957 13.8547C23.0717 15.0512 21.7525 16.9709 21.003 17.5363C20.6567 16.2653 21.4895 12.2505 22.8876 8.63026L19.5303 7.32854C18.4477 10.1204 16.1467 16.9271 18.1366 19.8198C18.7721 20.7446 19.767 21.2355 20.9416 21.2443C23.1769 21.2355 24.8819 18.7548 26.8542 15.8884C27.608 14.7926 28.8835 12.9343 29.7469 12.1454C30.1896 13.4295 30.5358 16.1733 30.4 19.0791C25.1755 20.9287 20.7707 24.4044 20.5472 27.5732C20.4902 28.3753 20.6304 31.0401 24.8424 31.6405C25.1974 31.6888 25.5481 31.7151 25.8899 31.7151C28.0682 31.7151 29.931 30.6895 31.3291 28.7128C32.5826 26.9421 33.3584 24.4482 33.7441 21.8184C34.796 21.5686 35.8961 21.4108 37.0138 21.3626V24.6279H40.954V16.4801C40.954 13.6224 42.8912 11.9131 45.784 11.8824V8.03857C40.4324 8.03857 37.0138 11.2907 37.0138 16.9709M28.7564 26.0523C27.6037 28.1123 26.3326 28.2131 25.3508 28.0729C24.6671 27.9764 24.2989 27.8186 24.1499 27.7266C24.3165 26.7755 26.5824 24.7155 29.8389 23.1903C29.5803 24.2334 29.2253 25.2108 28.7564 26.0523Z" fill="#FE0187"/>
<path d="M54.7776 7.88494C59.9363 7.88494 63.3813 11.2992 63.4163 16.4272V24.6408H59.441V21.2923L59.143 21.323V21.6166C59.143 23.1287 57.2715 24.9652 53.7213 24.9652C49.1894 24.9652 46.1345 21.678 46.1345 16.6858C46.1345 11.1677 49.5488 7.88494 54.7732 7.88494M54.6724 21.2528C58.021 21.2528 59.4367 19.2805 59.4367 16.4229C59.4367 13.5652 57.6309 11.5929 54.7732 11.5929C51.9156 11.5929 50.0441 13.5301 50.0441 16.4229C50.0441 19.3156 51.8192 21.2528 54.6768 21.2528" fill="#FE0187"/>
<path d="M69.1053 0H65.165V24.6363H69.1053V0Z" fill="#FE0187"/>
<path d="M0.876465 8.21367H4.8167V20.8584C6.32881 20.8584 11.6497 20.3324 11.6497 12.4169V8.21367H15.625V12.1232C15.625 20.4025 10.9615 24.6364 4.4573 24.6364H0.876465V8.21367Z" fill="#EAEBEB"/>
<path d="M36.1458 16.9841V17.7686C35.1684 17.8037 34.1691 17.9176 33.1742 18.1017C33.2268 14.7839 32.7315 11.6895 31.8549 10.0109C31.031 8.43303 29.8958 8.21388 29.2997 8.20512C26.8935 8.22265 25.1009 10.8349 23.019 13.8547C22.195 15.0512 20.8758 16.9709 20.1263 17.5363C19.78 16.2653 20.6128 12.2505 22.0109 8.63026L18.6536 7.32854C17.571 10.1204 15.27 16.9271 17.2599 19.8198C17.8954 20.7446 18.8903 21.2355 20.0649 21.2443C22.3002 21.2355 24.0052 18.7548 25.9775 15.8884C26.7313 14.7926 28.0068 12.9343 28.8702 12.1454C29.3129 13.4295 29.6591 16.1733 29.5232 19.0791C24.2988 20.9287 19.894 24.4044 19.6705 27.5732C19.6135 28.3753 19.7537 31.0401 23.9657 31.6405C24.3207 31.6888 24.6714 31.7151 25.0132 31.7151C27.1915 31.7151 29.0543 30.6895 30.4524 28.7128C31.7059 26.9421 32.4817 24.4482 32.8674 21.8184C33.9193 21.5686 35.0194 21.4108 36.1371 21.3626V24.6279H40.0773V16.4801C40.0773 13.6224 42.0145 11.9131 44.9073 11.8824V8.03857C39.5557 8.03857 36.1371 11.2907 36.1371 16.9709M27.8796 26.0523C26.7269 28.1123 25.4559 28.2131 24.4741 28.0729C23.7904 27.9764 23.4222 27.8186 23.2732 27.7266C23.4398 26.7755 25.7057 24.7155 28.9622 23.1903C28.7036 24.2334 28.3486 25.2108 27.8796 26.0523Z" fill="#EAEBEB"/>
<path d="M53.9012 7.88494C59.0598 7.88494 62.5048 11.2992 62.5399 16.4272V24.6408H58.5646V21.2923L58.2665 21.323V21.6166C58.2665 23.1287 56.395 24.9652 52.8449 24.9652C48.3129 24.9652 45.2581 21.678 45.2581 16.6858C45.2581 11.1677 48.6723 7.88494 53.8968 7.88494M53.796 21.2528C57.1445 21.2528 58.5602 19.2805 58.5602 16.4229C58.5602 13.5652 56.7544 11.5929 53.8968 11.5929C51.0391 11.5929 49.1676 13.5301 49.1676 16.4229C49.1676 19.3156 50.9427 21.2528 53.8004 21.2528" fill="#EAEBEB"/>
<path d="M68.2288 0H64.2886V24.6363H68.2288V0Z" fill="#EAEBEB"/>
</svg>
