<svg fill="none" height="24" viewBox="0 0 24 24" width="24" xmlns="http://www.w3.org/2000/svg"><g fill="rgb(0,0,0)"><path d="m9.73367 2c-2.595 0-4.69867 2.10367-4.69867 4.69867s2.10367 4.69863 4.69867 4.69863c2.59503 0 4.69863-2.10363 4.69863-4.69863s-2.1036-4.69867-4.69863-4.69867z"/><path d="m8.09555 12.7689c-3.17564 0-5.75 2.5744-5.75 5.75v.2972c0 1.5188 1.23122 2.75 2.75 2.75h5.26175c.3969 0 .6463-.4497.5066-.8213-.1747-.465-.2703-.9687-.2703-1.4948v-2.4949c0-1.1464.4544-2.1859 1.1901-2.9492.0951-.0987.152-.2284.1587-.3653.0017-.0353.0038-.0704.0063-.1055.0203-.2887-.178-.5597-.4674-.5651-.0366-.0007-.0733-.0011-.1101-.0011z"/><path clip-rule="evenodd" d="m20.5459 14.549c-.1412-.1053-.2361-.2656-.2361-.4418v-.4208c0-1.8981-1.5386-3.4368-3.4367-3.4368-1.898 0-3.4367 1.5387-3.4367 3.4368v.4217c0 .176-.0948.3364-.2359.4417-.6719.5013-1.1069 1.3025-1.1069 2.2053v2.4949c0 1.5188 1.2312 2.75 2.75 2.75h4.0602c1.5188 0 2.75-1.2312 2.75-2.75v-2.4949c0-.9032-.4355-1.7047-1.1079-2.2061zm-3.6728-2.7994c-1.0696 0-1.9367.8671-1.9367 1.9368 0 .176.1427.3187.3187.3187h3.236c.176 0 .3187-.1427.3187-.3187 0-1.0697-.8671-1.9368-1.9367-1.9368z" fill-rule="evenodd"/></g></svg>